<svg width="263" height="48" viewBox="0 0 263 48" version="1.1" xmlns="http://www.w3.org/2000/svg" xmlns:xlink="http://www.w3.org/1999/xlink"><title>Group 2</title><defs><path id="path-1" d="M0 .497v19.097h16.54V.497H0z"/><path id="path-3" d="M0 27.28h204.612V0H0z"/></defs><g id="Welcome" stroke="none" stroke-width="1" fill="none" fill-rule="evenodd"><g id="Landing" transform="translate(-70 -9)"><g id="Group-2" transform="translate(70 9)"><g id="Group" fill="#8CB848"><path d="M9.25 5.91c2.21 1.701 3.592 6.316 4.873 9.389.364.446.817.652 1.54.134-.517 2.679-.425 5.582-2.192 7.799.439-5.014-.666-11.31-4.222-17.321M27.949 28.585c1.954.44 3.193 2.8 4.628 4.63-1.35.39-1.7-1.893-2.935-1.815-.327.365-.291.865.029 1.47-1.496-.58-1.69-2.986-1.722-4.285M30.828 34.027c1.348-.292 2.751.015 4.21-.049 1.46-.066 2.937-.303 4.386-.13 1.426.171 2.806.666 4.177.816 1.495.161 2.852-.226 4.29.126.544 4.39-3.41 8.77-8.79 9.591 1.92-1.063 4.552-1.751 5.98-3.624.817-1.07 1.72-3.114 1.105-4.116-.383-.626-1.892-.71-3.477-1.14-1.344-.367-2.589-.886-3.825-.977-3.244-.237-5.87 1.046-8.056-.497M34.359 40.441c-.614 1.04-.923 2.189-2.264 2.957.548-1.024.877-3.151 2.264-2.957M35.215 40.465c-.042 1.348-.801 2.428-1.85 3.403.905-1.029.479-2.547 1.85-3.403M28.485 45.71c.115-.056.233-.108.35-.161 1.756-.624 3.578.023 5.32.069 2.085.058 3.871-.313 5.612-.699 1.189-.262 1.575-.636.601-.07-.597.353-1.842.87-1.922.897-2.72.895-6.526.68-9.455.153-.223-.042-.424.202-.506-.19" id="Shape"/><path d="M.365.29c3.136.191 6.512 1.832 9.476 3.651 3.076 1.883 6.284 4.255 8.485 7.076 3.512 4.507.247 10.253 1.733 15.089.438 1.429 2.015 3.037 1.626 4.54-4.177-4.459-1.287-10.267-2.765-15.031C17.034 9.532 12.34 6.952 8.267 4.673c.73 1.805 2.366 4.27 3.004 6.655C8.07 6.485 4.508 2.61.365.29" id="Shape"/><path d="M11.582 7.793c1.16.11 2.08 1.495 3.075 2.597 1.819 2.013 3.44 4.014 3.592 7.02.105 2.061-.882 4.441-1.381 6.787-.944 4.447-.482 8.768 3.386 14.53-2.871-3.298-4.53-6.864-4.919-10.428-.428-3.925 1.845-7.473 1.786-10.576-.072-3.75-2.71-7.764-5.54-9.93" id="Shape"/><path d="M21.985 31.78c1.53-1.82.014-4.763-1.334-7.646 3.91-.02 5.686 6.273 8.733 9.506 1.257 1.333 2.672 1.923 4.205 2.284-2.293.384-4.558-1.39-6.475-3.562-1.08-1.226-2.148-2.977-3.743-3.134-.223 1.424.54 3.216-1.105 4.114-4.84-2.085-4.546-9.639-3.356-13.06-.496-.65.508-.279 0 0 .016 2.597-.722 7.106.901 9.965.48.845 1.134 1.55 2.174 1.533M19.285 45.957c.744-.376 1.219-.384 1.748-.813 3.145-2.539-.132-6.251-2.186-10.001 2.757 2.917 7.024 6.89 3.282 10.553 2.239 1.093 4.162-1.263 6.598-1.793 2.107-.458 4.385 1.303 6.242.702-1.727.916-3.66-.396-6.118.512-1.446.533-2.738 1.84-4.294 2.208-1.945.456-3.891-.628-5.272-1.368M43.37 38.372c-.474.622-2.356.466-2.974 1.38-.296-.24-.69-.217-.825-.89-1.485.37-2.937.646-4.226.483-.646-.039.515-.395.604-.069 3.092-1.952 5.014-.785 7.42-.904M36.406 40.76c.418 1.223-1.119 1.725-1.308 2.725-.163-.477.495-2.601 1.308-2.725M37.772 40.972c.142 1.124-1.272 1.67-1.816 2.54.175-.354.517-2.595 1.816-2.54" id="Shape"/><path d="M9.25 5.91c2.21 1.701 3.592 6.316 4.873 9.389.364.446.817.652 1.54.134-.517 2.679-.425 5.582-2.192 7.799.439-5.014-.666-11.31-4.222-17.321" id="Shape-Copy-13"/><path d="M27.949 28.585c1.954.44 3.193 2.8 4.628 4.63-1.35.39-1.7-1.893-2.935-1.815-.327.365-.291.865.029 1.47-1.496-.58-1.69-2.986-1.722-4.285" id="Shape-Copy-12"/><path d="M30.828 34.027c1.348-.292 2.751.015 4.21-.049 1.46-.066 2.937-.303 4.386-.13 1.426.171 2.806.666 4.177.816 1.495.161 2.852-.226 4.29.126.544 4.39-3.41 8.77-8.79 9.591 1.92-1.063 4.552-1.751 5.98-3.624.817-1.07 1.72-3.114 1.105-4.116-.383-.626-1.892-.71-3.477-1.14-1.344-.367-2.589-.886-3.825-.977-3.244-.237-5.87 1.046-8.056-.497" id="Shape-Copy-11"/><path d="M34.359 40.441c-.614 1.04-.923 2.189-2.264 2.957.548-1.024.877-3.151 2.264-2.957" id="Shape-Copy-10"/><path d="M35.215 40.465c-.042 1.348-.801 2.428-1.85 3.403.905-1.029.479-2.547 1.85-3.403" id="Shape-Copy-9"/><path d="M28.485 45.71c.115-.056.233-.108.35-.161 1.756-.624 3.578.023 5.32.069 2.085.058 3.871-.313 5.612-.699 1.189-.262 1.575-.636.601-.07-.597.353-1.842.87-1.922.897-2.72.895-6.526.68-9.455.153-.223-.042-.424.202-.506-.19" id="Shape-Copy-8"/><path d="M.365.29c3.136.191 6.512 1.832 9.476 3.651 3.076 1.883 6.284 4.255 8.485 7.076 3.512 4.507.247 10.253 1.733 15.089.438 1.429 2.015 3.037 1.626 4.54-4.177-4.459-1.287-10.267-2.765-15.031C17.034 9.532 12.34 6.952 8.267 4.673c.73 1.805 2.366 4.27 3.004 6.655C8.07 6.485 4.508 2.61.365.29" id="Shape-Copy-7"/><path d="M11.582 7.793c1.16.11 2.08 1.495 3.075 2.597 1.819 2.013 3.44 4.014 3.592 7.02.105 2.061-.882 4.441-1.381 6.787-.944 4.447-.482 8.768 3.386 14.53-2.871-3.298-4.53-6.864-4.919-10.428-.428-3.925 1.845-7.473 1.786-10.576-.072-3.75-2.71-7.764-5.54-9.93" id="Shape-Copy-6"/><path d="M21.985 31.78c1.53-1.82.014-4.763-1.334-7.646 3.91-.02 5.686 6.273 8.733 9.506 1.257 1.333 2.672 1.923 4.205 2.284-2.293.384-4.558-1.39-6.475-3.562-1.08-1.226-2.148-2.977-3.743-3.134-.223 1.424.54 3.216-1.105 4.114-4.84-2.085-4.546-9.639-3.356-13.06-.496-.65.508-.279 0 0 .016 2.597-.722 7.106.901 9.965.48.845 1.134 1.55 2.174 1.533" id="Shape-Copy-5"/><path d="M19.285 45.957c.744-.376 1.219-.384 1.748-.813 3.145-2.539-.132-6.251-2.186-10.001 2.757 2.917 7.024 6.89 3.282 10.553 2.239 1.093 4.162-1.263 6.598-1.793 2.107-.458 4.385 1.303 6.242.702-1.727.916-3.66-.396-6.118.512-1.446.533-2.738 1.84-4.294 2.208-1.945.456-3.891-.628-5.272-1.368" id="Shape-Copy-4"/><path d="M43.37 38.372c-.474.622-2.356.466-2.974 1.38-.296-.24-.69-.217-.825-.89-1.485.37-2.937.646-4.226.483-.646-.039.515-.395.604-.069 3.092-1.952 5.014-.785 7.42-.904" id="Shape-Copy-3"/><path d="M36.406 40.76c.418 1.223-1.119 1.725-1.308 2.725-.163-.477.495-2.601 1.308-2.725" id="Shape-Copy-2"/><path d="M37.772 40.972c.142 1.124-1.272 1.67-1.816 2.54.175-.354.517-2.595 1.816-2.54" id="Shape-Copy"/></g><g id="Page-1" transform="translate(58 19)"><path d="M103.964 1.435c0-.786-.66-1.423-1.474-1.423h-2.608c-.813 0-1.473.637-1.473 1.423v2.52c0 .785.66 1.422 1.473 1.422h2.608c.814 0 1.474-.637 1.474-1.423v-2.52z" id="Fill-1" fill="#8CB848"/><g id="Group-5" transform="translate(0 7.515)"><mask id="mask-2" fill="#fff"><use xlink:href="#path-1"/></mask><path d="M9.242 15.135c-2.288 0-3.39-1.506-3.39-5.064 0-3.445 1.37-5.076 3.545-5.076 1.512 0 4.805.09 6.285.157.474-3.61.024-.19.474-3.627C14.41.927 11.85.497 9.642.497c-3.683 0-6.833.868-8.112 2.928C.25 5.41 0 7.935 0 10.331c0 5.093 1.273 9.27 9.41 9.263 2.83-.003 5.152-.272 7.13-1.246l-.503-3.453c-2.167.167-5.283.24-6.795.24" id="Fill-3" fill="#8CB848" mask="url(#mask-2)"/></g><path d="M53.098 21.943c-.93.636-2.83 1.385-3.916 1.385-2.363 0-3.76-1.31-3.76-5.355 0-4.08 1.28-6.103 3.838-6.103 1.435 0 2.714.338 3.838 1.011v9.062zm0-12.807c-1.356-.786-3.062-1.16-5.04-1.16-5.737 0-7.826 3.894-7.826 10.035 0 6.03 2.128 9.061 7.167 9.061 2.21 0 4.187-.673 5.854-1.984.039 0 .077.038.116.075l.117 1.647h5.155V.038h-5.543v9.098z" id="Fill-6" fill="#8CB848"/><path d="M70.943 12.226c2.248 0 3.51-.067 3.51 2.003 0 2.003-2.016 1.956-2.016 1.956l-5.101-.002c.4-3.563 1.242-3.957 3.607-3.957m.918 10.635c-3.373 0-4.432-.665-4.432-3.548 0 0 3.636.012 8.728.012 2.229 0 4.518-2.921 3.306-7.107-.323-1.115-.465-1.36-1.555-2.412-1.125-1.199-4.11-1.868-7.21-1.868-3.567 0-6.203 1.31-7.482 3.37-1.28 2.06-1.43 4.081-1.43 6.329 0 2.733.112 4.792 1.468 6.627 1.358 1.797 3.955 2.846 7.676 2.846 3.102 0 5.705-.666 8.259-1.267l-.362-3.479c-2.767.367-5.028.497-6.966.497" id="Fill-8" fill="#8CB848"/><path d="M91.971 23.066c-1.9 0-2.559-.86-2.559-2.846v-8.313h5.544v-3.52h-5.544V3.332l-5.452.001v5.032l-2.687.016v3.526h2.673v9.736c0 3.333 1.668 5.467 6.59 5.467 2.016 0 3.838-.338 5.428-1.05l-.698-3.481c-1.512.337-2.597.487-3.295.487" id="Fill-10" fill="#8CB848"/><mask id="mask-4" fill="#fff"><use xlink:href="#path-3"/></mask><path id="Fill-12" fill="#8CB848" mask="url(#mask-4)" d="M98.404 26.81h5.544V8.426h-5.544z"/><path d="M116.839 23.328c-1.318 0-2.52-.225-3.605-.674v-9.586c1.434-.786 2.752-1.16 3.953-1.16 2.288 0 3.645 1.31 3.645 5.803 0 4.194-1.397 5.617-3.993 5.617m2.015-15.427c-1.822 0-3.644.561-5.543 1.685l-.271-.15c0-.337 0-.974.039-1.985.039-1.01.077-1.685.077-2.022V0h-5.504v25.277c2.636 1.235 5.776 1.834 9.459 1.834 6.202 0 8.91-3.145 8.91-9.473 0-6.478-2.127-9.736-7.167-9.736" id="Fill-14" fill="#8CB848" mask="url(#mask-4)"/><path d="M141.365 8.425v12.956c-1.357 1.16-2.714 1.722-4.07 1.722-2.132 0-2.598-1.197-2.598-3.295V8.425h-5.543v12.543c0 2.023.388 3.558 1.163 4.644.814 1.086 2.365 1.61 4.652 1.61 2.364 0 4.497-.823 6.474-2.471l.155.075.154 1.984h5.156V8.387c-.62 0-1.55 0-2.792.038h-2.751z" id="Fill-15" fill="#8CB848" mask="url(#mask-4)"/><path d="M199.365 8.425v12.956c-1.357 1.16-2.714 1.722-4.07 1.722-2.132 0-2.598-1.197-2.598-3.295V8.425h-5.543v12.543c0 2.023.388 3.558 1.163 4.644.814 1.086 2.365 1.61 4.652 1.61 2.364 0 4.497-.823 6.474-2.471l.155.075.154 1.984h5.156V8.387c-.62 0-1.55 0-2.792.038h-2.751z" id="Fill-15-Copy" fill="#8CB848" mask="url(#mask-4)" transform="rotate(-180 196.031 17.805)"/><path d="M162.825 7.938c-2.054 0-5.04 1.27-7.249 3.367 0 0-.098-.346-.428-2.88h-4.999v18.386h5.543V14.379s5.222-1.78 7.517-1.438c.019.003-.064-.011.014.006V7.939h-.398" id="Fill-16" fill="#8CB848" mask="url(#mask-4)"/><path d="M27.957 23.372c-3.102 0-3.64-1.116-3.64-5.767 0-5.093.965-5.841 3.64-5.841 2.52 0 3.406.558 3.406 5.841 0 4.777-.887 5.767-3.406 5.767m0-15.39c-3.295 0-5.776.899-7.366 2.696-1.589 1.797-1.972 4.119-1.972 6.927 0 2.883.344 5.168 1.856 6.928 1.512 1.76 3.954 2.621 7.249 2.621 3.372 0 5.854-.898 7.404-2.658 1.59-1.798 1.973-4.12 1.973-6.928s-.384-5.13-1.895-6.89c-1.512-1.797-3.954-2.696-7.25-2.696" id="Fill-17" fill="#8CB848" mask="url(#mask-4)"/><path d="M174.155 23.498c-3.102 0-3.64-1.116-3.64-5.767 0-5.093.965-5.84 3.64-5.84 2.52 0 3.406.558 3.406 5.84 0 4.777-.886 5.767-3.406 5.767m0-15.39c-3.295 0-5.776.899-7.366 2.696-1.589 1.798-1.972 4.12-1.972 6.927 0 2.884.344 5.168 1.856 6.928 1.512 1.76 3.954 2.621 7.249 2.621 3.372 0 5.854-.899 7.404-2.658 1.59-1.798 1.973-4.12 1.973-6.928 0-2.809-.384-5.13-1.895-6.89-1.511-1.797-3.954-2.696-7.25-2.696" id="Fill-18" fill="#8CB848" mask="url(#mask-4)"/></g></g></g></g></svg>